# xmcd CD database file
#
# Track frame offsets:
#	183
#	15100
#	28313
#	42160
#	55943
#	69890
#	84173
#	97363
#	112118
#	125160
#	138098
#	151518
#	165403
#	179803
#	194210
#	207155
#
# Disc length: 2943 seconds
#
# Revision: 1
# Processed by: cddbd v1.5.1PL2 Copyright (c) Steve Scherf et al.
# Submitted via: CDex 1.51
#
DISCID=da0b7d10
DTITLE=Bix Beiderbecke - At the jazz band ball
DYEAR=1927
DGENRE=Jazz
TTITLE0=Goose Pimples
TTITLE1=Sorry
TTITLE2=Cryin' All Day
TTITLE3=A Good Man Is Hard To Find
TTITLE4=Since My Best Gal Turned On Down
TTITLE5=Sugar
TTITLE6=There'll Come A Time
TTITLE7=Jubilee
TTITLE8=Three Blind Mice
TTITLE9=Clorinda
TTITLE10=I'm More Than Satisfied
TTITLE11=At The Jazz Band Ball
TTITLE12=Royal Garden Blues
TTITLE13=Jazz Me Blues
TTITLE14=Mississippi Mud
TTITLE15=Oh Gee! Oh Joy!
EXTD=YEAR: 1927
EXTT0=
EXTT1=
EXTT2=
EXTT3=
EXTT4=
EXTT5=
EXTT6=
EXTT7=
EXTT8=
EXTT9=
EXTT10=
EXTT11=
EXTT12=
EXTT13=
EXTT14=
EXTT15=
PLAYORDER=
